<?xml version="1.0" encoding="utf-8"?>
<!-- Generator: Adobe Illustrator 24.0.1, SVG Export Plug-In . SVG Version: 6.00 Build 0)  -->
<svg version="1.1" id="レイヤー_1" xmlns="http://www.w3.org/2000/svg" xmlns:xlink="http://www.w3.org/1999/xlink" x="0px"
	 y="0px" viewBox="0 0 362 368.2" style="enable-background:new 0 0 362 368.2;" xml:space="preserve">
<style type="text/css">
	.st0{fill:#78693C;}
</style>
<g>
	<path class="st0" d="M36.9,104c0-37,30.1-67.1,67.1-67.1h154c37,0,67.1,30.1,67.1,67.1v160.1c0,37-30.1,67.1-67.1,67.1H104
		c-37,0-67.1-30.1-67.1-67.1V104L36.9,104z M258,0H104C46.6,0,0,46.6,0,104v160.1c0,57.5,46.6,104,104,104h154
		c57.5,0,104-46.6,104-104V104C362,46.6,315.4,0,258,0L258,0z"/>
	<path class="st0" d="M181,118.8c36,0,65.3,29.3,65.3,65.3S217,249.4,181,249.4s-65.3-29.3-65.3-65.3S145,118.8,181,118.8L181,118.8
		z M181,278.9c52.3,0,94.8-42.5,94.8-94.8S233.3,89.3,181,89.3s-94.8,42.5-94.8,94.8S128.7,278.9,181,278.9L181,278.9z"/>
	<path class="st0" d="M278.6,107.7c11.7,0,21.2-9.5,21.2-21.2s-9.5-21.2-21.2-21.2s-21.2,9.5-21.2,21.2
		C257.3,98.2,266.8,107.7,278.6,107.7L278.6,107.7z"/>
</g>
</svg>
