<?xml version="1.0" encoding="utf-8"?>
<!-- Generator: Adobe Illustrator 23.0.3, SVG Export Plug-In . SVG Version: 6.00 Build 0)  -->
<svg version="1.1" id="レイヤー_1" xmlns="http://www.w3.org/2000/svg" xmlns:xlink="http://www.w3.org/1999/xlink" x="0px"
	 y="0px" viewBox="0 0 94.6 76.9" style="enable-background:new 0 0 94.6 76.9;" xml:space="preserve">
<style type="text/css">
	.st0{fill:#FFFFFF;}
</style>
<title>tw</title>
<path class="st0" d="M94.6,9.1c-3.5,1.6-7.3,2.6-11.2,3.1c4.1-2.4,7.1-6.2,8.5-10.7c-3.8,2.3-8,3.9-12.3,4.7C72.3-1.7,60-2,52.2,5.3
	c-5,4.7-7.2,11.8-5.6,18.5C31,23,16.5,15.7,6.6,3.5c-5.2,8.9-2.5,20.2,6,25.9c-3.1-0.1-6.1-1-8.8-2.5v0.2c0,9.2,6.5,17.2,15.6,19
	c-1.7,0.5-3.4,0.7-5.1,0.7c-1.2,0-2.4-0.1-3.7-0.3c2.5,7.9,9.8,13.4,18.1,13.6c-6.9,5.4-15.4,8.3-24.1,8.3c-1.5,0-3.1-0.1-4.6-0.3
	c8.9,5.7,19.2,8.7,29.8,8.7C65.5,76.9,85,47.3,85,21.7c0-0.8,0-1.7-0.1-2.5C88.7,16.4,92,13,94.6,9.1"/>
</svg>
